<mxfile host="app.diagrams.net" agent="Mozilla/5.0 (Windows NT 10.0; Win64; x64) AppleWebKit/537.36 (KHTML, like Gecko) Chrome/131.0.0.0 Safari/537.36" version="25.0.3">
  <diagram name="Page-1" id="Qt19RMPsktTz-88-1ceg">
    <mxGraphModel dx="326" dy="576" grid="1" gridSize="10" guides="1" tooltips="1" connect="1" arrows="1" fold="1" page="1" pageScale="1" pageWidth="827" pageHeight="1169" math="0" shadow="0">
      <root>
        <mxCell id="0" />
        <mxCell id="1" parent="0" />
        <mxCell id="XsI1r4GCcFf9s33vluTI-1" value="Mixeur" style="ellipse;whiteSpace=wrap;html=1;" vertex="1" parent="1">
          <mxGeometry x="260" y="190" width="120" height="80" as="geometry" />
        </mxCell>
        <mxCell id="XsI1r4GCcFf9s33vluTI-36" style="edgeStyle=orthogonalEdgeStyle;curved=1;rounded=0;orthogonalLoop=1;jettySize=auto;html=1;exitX=1;exitY=0.5;exitDx=0;exitDy=0;fontSize=12;startSize=8;endSize=8;endArrow=none;endFill=0;entryX=1;entryY=0.5;entryDx=0;entryDy=0;strokeColor=#d30909;" edge="1" parent="1" source="XsI1r4GCcFf9s33vluTI-13" target="XsI1r4GCcFf9s33vluTI-38">
          <mxGeometry relative="1" as="geometry">
            <mxPoint x="210" y="250" as="sourcePoint" />
            <mxPoint x="280" y="170" as="targetPoint" />
            <Array as="points">
              <mxPoint x="200" y="220" />
              <mxPoint x="270" y="220" />
              <mxPoint x="270" y="200" />
              <mxPoint x="210" y="200" />
            </Array>
          </mxGeometry>
        </mxCell>
        <mxCell id="XsI1r4GCcFf9s33vluTI-37" value="&lt;font face=&quot;Calibri, sans-serif&quot;&gt;&lt;span style=&quot;font-size: 14.6667px;&quot;&gt;FS1,&amp;nbsp;&lt;/span&gt;&lt;/font&gt;&lt;span style=&quot;font-family: Calibri, sans-serif; font-size: 14.6667px;&quot;&gt;FS2&lt;/span&gt;" style="edgeLabel;html=1;align=center;verticalAlign=middle;resizable=0;points=[];fontSize=12;" vertex="1" connectable="0" parent="XsI1r4GCcFf9s33vluTI-36">
          <mxGeometry x="-0.1" y="2" relative="1" as="geometry">
            <mxPoint x="-38" y="-26" as="offset" />
          </mxGeometry>
        </mxCell>
        <mxCell id="XsI1r4GCcFf9s33vluTI-4" style="edgeStyle=orthogonalEdgeStyle;rounded=0;orthogonalLoop=1;jettySize=auto;html=1;exitX=1;exitY=0.5;exitDx=0;exitDy=0;entryX=0;entryY=0.5;entryDx=0;entryDy=0;fontSize=12;startSize=8;endSize=8;endArrow=none;endFill=0;curved=1;" edge="1" parent="1" source="XsI1r4GCcFf9s33vluTI-1" target="XsI1r4GCcFf9s33vluTI-3">
          <mxGeometry relative="1" as="geometry" />
        </mxCell>
        <mxCell id="XsI1r4GCcFf9s33vluTI-5" value="&lt;span style=&quot;font-size: 11pt; line-height: 110%; font-family: Calibri, sans-serif;&quot;&gt;FC3,&amp;nbsp;&lt;span style=&quot;font-size: 11pt; line-height: 110%;&quot;&gt;FC4 ,&amp;nbsp;&lt;/span&gt;&lt;span style=&quot;font-size: 11pt; line-height: 110%;&quot;&gt;FC5&amp;nbsp;&lt;/span&gt;&amp;nbsp;&lt;/span&gt;" style="edgeLabel;html=1;align=center;verticalAlign=middle;resizable=0;points=[];fontSize=12;" vertex="1" connectable="0" parent="XsI1r4GCcFf9s33vluTI-4">
          <mxGeometry y="3" relative="1" as="geometry">
            <mxPoint as="offset" />
          </mxGeometry>
        </mxCell>
        <mxCell id="XsI1r4GCcFf9s33vluTI-7" style="edgeStyle=orthogonalEdgeStyle;curved=1;rounded=0;orthogonalLoop=1;jettySize=auto;html=1;exitX=0.974;exitY=0.363;exitDx=0;exitDy=0;fontSize=12;startSize=8;endSize=8;entryX=0;entryY=0.5;entryDx=0;entryDy=0;endArrow=none;endFill=0;exitPerimeter=0;" edge="1" parent="1" source="XsI1r4GCcFf9s33vluTI-1" target="XsI1r4GCcFf9s33vluTI-6">
          <mxGeometry relative="1" as="geometry" />
        </mxCell>
        <mxCell id="XsI1r4GCcFf9s33vluTI-8" value="&lt;span style=&quot;font-size: 11pt; line-height: 110%; font-family: Calibri, sans-serif;&quot;&gt;FT8&amp;nbsp;&lt;/span&gt;" style="edgeLabel;html=1;align=center;verticalAlign=middle;resizable=0;points=[];fontSize=12;" vertex="1" connectable="0" parent="XsI1r4GCcFf9s33vluTI-7">
          <mxGeometry x="0.0953" y="1" relative="1" as="geometry">
            <mxPoint as="offset" />
          </mxGeometry>
        </mxCell>
        <mxCell id="XsI1r4GCcFf9s33vluTI-3" value="Environement" style="ellipse;whiteSpace=wrap;html=1;" vertex="1" parent="1">
          <mxGeometry x="440" y="260" width="100" height="50" as="geometry" />
        </mxCell>
        <mxCell id="XsI1r4GCcFf9s33vluTI-6" value="Alimentation" style="ellipse;whiteSpace=wrap;html=1;" vertex="1" parent="1">
          <mxGeometry x="430" y="170" width="100" height="60" as="geometry" />
        </mxCell>
        <mxCell id="XsI1r4GCcFf9s33vluTI-9" value="Instruments" style="ellipse;whiteSpace=wrap;html=1;" vertex="1" parent="1">
          <mxGeometry x="290" y="70" width="100" height="60" as="geometry" />
        </mxCell>
        <mxCell id="XsI1r4GCcFf9s33vluTI-10" style="edgeStyle=orthogonalEdgeStyle;curved=1;rounded=0;orthogonalLoop=1;jettySize=auto;html=1;exitX=0.5;exitY=1;exitDx=0;exitDy=0;fontSize=12;startSize=8;endSize=8;entryX=0.5;entryY=0;entryDx=0;entryDy=0;endArrow=none;endFill=0;" edge="1" parent="1" source="XsI1r4GCcFf9s33vluTI-9" target="XsI1r4GCcFf9s33vluTI-1">
          <mxGeometry relative="1" as="geometry">
            <mxPoint x="372" y="212" as="sourcePoint" />
            <mxPoint x="480" y="180" as="targetPoint" />
          </mxGeometry>
        </mxCell>
        <mxCell id="XsI1r4GCcFf9s33vluTI-11" value="&lt;span style=&quot;font-size: 11pt; line-height: 110%; font-family: Calibri, sans-serif;&quot;&gt;FP&amp;nbsp;&lt;/span&gt;" style="edgeLabel;html=1;align=center;verticalAlign=middle;resizable=0;points=[];fontSize=12;" vertex="1" connectable="0" parent="XsI1r4GCcFf9s33vluTI-10">
          <mxGeometry x="0.0953" y="1" relative="1" as="geometry">
            <mxPoint as="offset" />
          </mxGeometry>
        </mxCell>
        <mxCell id="XsI1r4GCcFf9s33vluTI-14" style="edgeStyle=orthogonalEdgeStyle;curved=1;rounded=0;orthogonalLoop=1;jettySize=auto;html=1;exitX=1;exitY=0.5;exitDx=0;exitDy=0;entryX=0;entryY=0.5;entryDx=0;entryDy=0;fontSize=12;startSize=8;endSize=8;endArrow=none;endFill=0;" edge="1" parent="1" source="XsI1r4GCcFf9s33vluTI-13" target="XsI1r4GCcFf9s33vluTI-1">
          <mxGeometry relative="1" as="geometry">
            <Array as="points">
              <mxPoint x="260" y="240" />
            </Array>
          </mxGeometry>
        </mxCell>
        <mxCell id="XsI1r4GCcFf9s33vluTI-15" value="&lt;span style=&quot;font-size: 11pt; line-height: 110%; font-family: Calibri, sans-serif;&quot;&gt;FT5,&amp;nbsp;&lt;/span&gt;&lt;div&gt;&lt;span style=&quot;font-size: 11pt; line-height: 110%; font-family: Calibri, sans-serif;&quot;&gt;FT7,&lt;/span&gt;&lt;/div&gt;&lt;div&gt;&lt;span style=&quot;font-size: 11pt; line-height: 110%; font-family: Calibri, sans-serif;&quot;&gt;FC1&lt;/span&gt;&lt;/div&gt;" style="edgeLabel;html=1;align=center;verticalAlign=middle;resizable=0;points=[];fontSize=12;" vertex="1" connectable="0" parent="XsI1r4GCcFf9s33vluTI-14">
          <mxGeometry x="-0.1" y="2" relative="1" as="geometry">
            <mxPoint x="-12" y="22" as="offset" />
          </mxGeometry>
        </mxCell>
        <mxCell id="XsI1r4GCcFf9s33vluTI-13" value="&lt;strong&gt;Interface et Utilisation&lt;/strong&gt;" style="ellipse;whiteSpace=wrap;html=1;" vertex="1" parent="1">
          <mxGeometry x="100" y="210" width="100" height="60" as="geometry" />
        </mxCell>
        <mxCell id="XsI1r4GCcFf9s33vluTI-19" style="edgeStyle=orthogonalEdgeStyle;curved=1;rounded=0;orthogonalLoop=1;jettySize=auto;html=1;exitX=0.5;exitY=1;exitDx=0;exitDy=0;entryX=0;entryY=0;entryDx=0;entryDy=0;fontSize=12;startSize=8;endSize=8;endArrow=none;endFill=0;" edge="1" parent="1" source="XsI1r4GCcFf9s33vluTI-17" target="XsI1r4GCcFf9s33vluTI-1">
          <mxGeometry relative="1" as="geometry">
            <Array as="points">
              <mxPoint x="240" y="141" />
              <mxPoint x="260" y="141" />
              <mxPoint x="260" y="202" />
            </Array>
          </mxGeometry>
        </mxCell>
        <mxCell id="XsI1r4GCcFf9s33vluTI-20" value="FC1, FC2" style="edgeLabel;html=1;align=center;verticalAlign=middle;resizable=0;points=[];fontSize=12;" vertex="1" connectable="0" parent="XsI1r4GCcFf9s33vluTI-19">
          <mxGeometry x="-0.2092" y="-1" relative="1" as="geometry">
            <mxPoint x="-1" as="offset" />
          </mxGeometry>
        </mxCell>
        <mxCell id="XsI1r4GCcFf9s33vluTI-17" value="SonoritÃ© et Performances&amp;nbsp;" style="ellipse;whiteSpace=wrap;html=1;" vertex="1" parent="1">
          <mxGeometry x="190" y="70" width="100" height="60" as="geometry" />
        </mxCell>
        <mxCell id="XsI1r4GCcFf9s33vluTI-21" value="Ergonomie" style="ellipse;whiteSpace=wrap;html=1;" vertex="1" parent="1">
          <mxGeometry x="140" y="310" width="100" height="60" as="geometry" />
        </mxCell>
        <mxCell id="XsI1r4GCcFf9s33vluTI-22" style="edgeStyle=orthogonalEdgeStyle;rounded=0;orthogonalLoop=1;jettySize=auto;html=1;exitX=0;exitY=1;exitDx=0;exitDy=0;entryX=0.5;entryY=0;entryDx=0;entryDy=0;fontSize=12;startSize=8;endSize=8;endArrow=none;endFill=0;curved=1;" edge="1" parent="1" source="XsI1r4GCcFf9s33vluTI-1" target="XsI1r4GCcFf9s33vluTI-21">
          <mxGeometry relative="1" as="geometry">
            <mxPoint x="390" y="240" as="sourcePoint" />
            <mxPoint x="470" y="275" as="targetPoint" />
            <Array as="points">
              <mxPoint x="250" y="258" />
              <mxPoint x="250" y="300" />
              <mxPoint x="190" y="300" />
            </Array>
          </mxGeometry>
        </mxCell>
        <mxCell id="XsI1r4GCcFf9s33vluTI-23" value="&lt;font face=&quot;Calibri, sans-serif&quot;&gt;&lt;span style=&quot;font-size: 14.6667px;&quot;&gt;FC6&lt;/span&gt;&lt;/font&gt;" style="edgeLabel;html=1;align=center;verticalAlign=middle;resizable=0;points=[];fontSize=12;" vertex="1" connectable="0" parent="XsI1r4GCcFf9s33vluTI-22">
          <mxGeometry y="3" relative="1" as="geometry">
            <mxPoint as="offset" />
          </mxGeometry>
        </mxCell>
        <mxCell id="XsI1r4GCcFf9s33vluTI-24" value="Signaux Midi et Analogiques" style="ellipse;whiteSpace=wrap;html=1;" vertex="1" parent="1">
          <mxGeometry x="380" y="320" width="100" height="60" as="geometry" />
        </mxCell>
        <mxCell id="XsI1r4GCcFf9s33vluTI-26" style="edgeStyle=orthogonalEdgeStyle;rounded=0;orthogonalLoop=1;jettySize=auto;html=1;exitX=0.5;exitY=1;exitDx=0;exitDy=0;fontSize=12;startSize=8;endSize=8;endArrow=none;endFill=0;curved=1;" edge="1" parent="1" source="XsI1r4GCcFf9s33vluTI-1" target="XsI1r4GCcFf9s33vluTI-24">
          <mxGeometry relative="1" as="geometry">
            <mxPoint x="288" y="268" as="sourcePoint" />
            <mxPoint x="250" y="340" as="targetPoint" />
          </mxGeometry>
        </mxCell>
        <mxCell id="XsI1r4GCcFf9s33vluTI-27" value="&lt;font face=&quot;Calibri, sans-serif&quot;&gt;&lt;span style=&quot;font-size: 14.6667px;&quot;&gt;FC6&lt;/span&gt;&lt;/font&gt;" style="edgeLabel;html=1;align=center;verticalAlign=middle;resizable=0;points=[];fontSize=12;" vertex="1" connectable="0" parent="XsI1r4GCcFf9s33vluTI-26">
          <mxGeometry y="3" relative="1" as="geometry">
            <mxPoint as="offset" />
          </mxGeometry>
        </mxCell>
        <mxCell id="XsI1r4GCcFf9s33vluTI-28" value="FT1, FT2, FT3, FT4" style="edgeLabel;html=1;align=center;verticalAlign=middle;resizable=0;points=[];fontSize=12;" vertex="1" connectable="0" parent="XsI1r4GCcFf9s33vluTI-26">
          <mxGeometry x="0.0545" y="4" relative="1" as="geometry">
            <mxPoint as="offset" />
          </mxGeometry>
        </mxCell>
        <mxCell id="XsI1r4GCcFf9s33vluTI-29" value="Maintenance et RÃ©parabilitÃ©" style="ellipse;whiteSpace=wrap;html=1;" vertex="1" parent="1">
          <mxGeometry x="390" y="90" width="100" height="60" as="geometry" />
        </mxCell>
        <mxCell id="XsI1r4GCcFf9s33vluTI-30" style="edgeStyle=orthogonalEdgeStyle;curved=1;rounded=0;orthogonalLoop=1;jettySize=auto;html=1;exitX=1;exitY=0;exitDx=0;exitDy=0;fontSize=12;startSize=8;endSize=8;entryX=0;entryY=1;entryDx=0;entryDy=0;endArrow=none;endFill=0;" edge="1" parent="1" source="XsI1r4GCcFf9s33vluTI-1" target="XsI1r4GCcFf9s33vluTI-29">
          <mxGeometry relative="1" as="geometry">
            <mxPoint x="372" y="212" as="sourcePoint" />
            <mxPoint x="440" y="210" as="targetPoint" />
            <Array as="points">
              <mxPoint x="380" y="202" />
              <mxPoint x="380" y="141" />
            </Array>
          </mxGeometry>
        </mxCell>
        <mxCell id="XsI1r4GCcFf9s33vluTI-31" value="&lt;span style=&quot;font-size: 11pt; line-height: 110%; font-family: Calibri, sans-serif;&quot;&gt;FT9&amp;nbsp;&lt;/span&gt;" style="edgeLabel;html=1;align=center;verticalAlign=middle;resizable=0;points=[];fontSize=12;" vertex="1" connectable="0" parent="XsI1r4GCcFf9s33vluTI-30">
          <mxGeometry x="0.0953" y="1" relative="1" as="geometry">
            <mxPoint as="offset" />
          </mxGeometry>
        </mxCell>
        <mxCell id="XsI1r4GCcFf9s33vluTI-32" value="Sortie,&amp;nbsp;Signal Sonore" style="ellipse;whiteSpace=wrap;html=1;" vertex="1" parent="1">
          <mxGeometry x="260" y="330" width="100" height="60" as="geometry" />
        </mxCell>
        <mxCell id="XsI1r4GCcFf9s33vluTI-33" style="edgeStyle=orthogonalEdgeStyle;rounded=0;orthogonalLoop=1;jettySize=auto;html=1;exitX=0.5;exitY=1;exitDx=0;exitDy=0;entryX=0.5;entryY=0;entryDx=0;entryDy=0;fontSize=12;startSize=8;endSize=8;endArrow=none;endFill=0;curved=1;" edge="1" parent="1" source="XsI1r4GCcFf9s33vluTI-1" target="XsI1r4GCcFf9s33vluTI-32">
          <mxGeometry relative="1" as="geometry">
            <mxPoint x="288" y="268" as="sourcePoint" />
            <mxPoint x="200" y="320" as="targetPoint" />
            <Array as="points">
              <mxPoint x="320" y="280" />
              <mxPoint x="300" y="280" />
              <mxPoint x="300" y="310" />
              <mxPoint x="310" y="310" />
            </Array>
          </mxGeometry>
        </mxCell>
        <mxCell id="XsI1r4GCcFf9s33vluTI-34" value="&lt;font face=&quot;Calibri, sans-serif&quot;&gt;&lt;span style=&quot;font-size: 14.6667px;&quot;&gt;FC6&lt;/span&gt;&lt;/font&gt;" style="edgeLabel;html=1;align=center;verticalAlign=middle;resizable=0;points=[];fontSize=12;" vertex="1" connectable="0" parent="XsI1r4GCcFf9s33vluTI-33">
          <mxGeometry y="3" relative="1" as="geometry">
            <mxPoint as="offset" />
          </mxGeometry>
        </mxCell>
        <mxCell id="XsI1r4GCcFf9s33vluTI-35" value="FT6" style="edgeLabel;html=1;align=center;verticalAlign=middle;resizable=0;points=[];fontSize=12;" vertex="1" connectable="0" parent="XsI1r4GCcFf9s33vluTI-33">
          <mxGeometry x="-0.0381" y="3" relative="1" as="geometry">
            <mxPoint as="offset" />
          </mxGeometry>
        </mxCell>
        <mxCell id="XsI1r4GCcFf9s33vluTI-38" value="Utilisateur" style="ellipse;whiteSpace=wrap;html=1;" vertex="1" parent="1">
          <mxGeometry x="110" y="130" width="100" height="60" as="geometry" />
        </mxCell>
      </root>
    </mxGraphModel>
  </diagram>
</mxfile>
